<mxfile host="app.diagrams.net" agent="Mozilla/5.0 (Windows NT 10.0; Win64; x64) AppleWebKit/537.36 (KHTML, like Gecko) Chrome/128.0.0.0 Safari/537.36 Edg/128.0.0.0" version="24.7.16">
  <diagram name="Page-1" id="PRd7FQZjsVaiXkbNxaNT">
    <mxGraphModel dx="1666" dy="749" grid="1" gridSize="10" guides="1" tooltips="1" connect="1" arrows="1" fold="1" page="1" pageScale="1" pageWidth="850" pageHeight="1100" math="0" shadow="0">
      <root>
        <mxCell id="0" />
        <mxCell id="1" parent="0" />
        <mxCell id="k_TeZD-Cbqsphx_-2Gbf-2" value="mpi_stub.f90" style="rounded=1;whiteSpace=wrap;html=1;fillColor=#FFCCCC;" parent="1" vertex="1">
          <mxGeometry x="373" y="30" width="157" height="40" as="geometry" />
        </mxCell>
        <mxCell id="k_TeZD-Cbqsphx_-2Gbf-3" value="&lt;div&gt;&lt;font style=&quot;font-size: 9px;&quot;&gt;Dependencies:&lt;/font&gt;&lt;/div&gt;&lt;div&gt;&lt;br&gt;&lt;/div&gt;" style="rounded=0;whiteSpace=wrap;html=1;align=left;" parent="1" vertex="1">
          <mxGeometry x="20" y="20" width="280" height="140" as="geometry" />
        </mxCell>
        <mxCell id="k_TeZD-Cbqsphx_-2Gbf-7" value="" style="edgeStyle=orthogonalEdgeStyle;rounded=0;orthogonalLoop=1;jettySize=auto;html=1;" parent="1" source="k_TeZD-Cbqsphx_-2Gbf-5" target="k_TeZD-Cbqsphx_-2Gbf-6" edge="1">
          <mxGeometry relative="1" as="geometry" />
        </mxCell>
        <mxCell id="k_TeZD-Cbqsphx_-2Gbf-5" value="MPI_Barrier(comm, ierr)" style="rounded=1;whiteSpace=wrap;html=1;fontStyle=1" parent="1" vertex="1">
          <mxGeometry x="80" y="210" width="198.51" height="40" as="geometry" />
        </mxCell>
        <mxCell id="k_TeZD-Cbqsphx_-2Gbf-9" style="edgeStyle=orthogonalEdgeStyle;rounded=0;orthogonalLoop=1;jettySize=auto;html=1;" parent="1" source="k_TeZD-Cbqsphx_-2Gbf-6" target="k_TeZD-Cbqsphx_-2Gbf-8" edge="1">
          <mxGeometry relative="1" as="geometry" />
        </mxCell>
        <mxCell id="k_TeZD-Cbqsphx_-2Gbf-6" value="&lt;div&gt;&lt;span style=&quot;font-weight: normal;&quot;&gt;integer comm, ierr&lt;/span&gt;&lt;/div&gt;&lt;div&gt;&lt;span style=&quot;background-color: initial; font-weight: normal;&quot;&gt;ierr = MPI_SUCCESS&lt;/span&gt;&lt;/div&gt;" style="whiteSpace=wrap;html=1;rounded=1;fontStyle=1;align=center;" parent="1" vertex="1">
          <mxGeometry x="98.88" y="280" width="160.75" height="50" as="geometry" />
        </mxCell>
        <mxCell id="k_TeZD-Cbqsphx_-2Gbf-8" value="end subroutine" style="whiteSpace=wrap;html=1;fillColor=#FFFFFF;rounded=1;fontStyle=1;" parent="1" vertex="1">
          <mxGeometry x="122.69" y="360" width="113.13" height="40" as="geometry" />
        </mxCell>
      </root>
    </mxGraphModel>
  </diagram>
</mxfile>
